<?xml version="1.0" standalone="no"?>
<!DOCTYPE svg PUBLIC "-//W3C//DTD SVG 20010904//EN"
 "http://www.w3.org/TR/2001/REC-SVG-20010904/DTD/svg10.dtd">
<svg version="1.0" xmlns="http://www.w3.org/2000/svg"
 width="73.000000pt" height="40.000000pt" viewBox="0 0 73.000000 40.000000"
 preserveAspectRatio="xMidYMid meet">

<g transform="translate(0.000000,40.000000) scale(0.100000,-0.100000)"
fill="#000000" stroke="none">
<path d="M107 364 c-4 -4 -7 -20 -7 -36 0 -23 4 -29 18 -26 11 2 17 13 17 32
0 29 -14 43 -28 30z m23 -29 c0 -14 -4 -25 -9 -25 -5 0 -8 11 -8 25 0 14 3 25
8 25 5 0 9 -11 9 -25z"/>
<path d="M170 351 c-14 -27 -13 -41 5 -41 8 0 15 5 15 11 0 5 -4 7 -10 4 -13
-8 -13 1 0 26 6 10 8 19 6 19 -3 0 -10 -9 -16 -19z"/>
<path d="M271 333 c0 -21 3 -31 6 -23 3 8 11 18 17 22 8 5 7 8 -1 8 -19 0 -16
18 5 23 13 4 11 5 -5 6 -20 1 -23 -4 -22 -36z"/>
<path d="M324 356 c-9 -24 0 -51 19 -54 9 -2 17 1 17 7 0 6 -7 8 -15 5 -11 -5
-15 1 -15 21 0 20 4 26 16 21 8 -3 12 -2 9 4 -9 15 -25 12 -31 -4z"/>
<path d="M382 337 c-2 -32 1 -38 16 -35 11 2 17 13 18 33 1 28 1 29 -3 3 -6
-38 -21 -35 -26 5 -4 31 -4 31 -5 -6z"/>
<path d="M441 364 c-1 -15 23 -64 32 -64 4 0 7 15 6 33 0 26 -2 29 -9 12 -8
-19 -8 -19 -18 5 -6 14 -11 20 -11 14z"/>
<path d="M490 335 c0 -29 3 -36 18 -33 11 2 17 13 17 33 0 20 -6 31 -17 33
-15 3 -18 -4 -18 -33z m30 0 c0 -14 -4 -25 -10 -25 -5 0 -10 11 -10 25 0 14 5
25 10 25 6 0 10 -11 10 -25z"/>
<path d="M45 331 c-3 -6 4 -15 15 -21 17 -9 20 -8 19 12 0 13 -3 17 -6 11 -2
-7 -9 -13 -14 -13 -6 0 -7 5 -4 10 3 6 4 10 1 10 -3 0 -7 -4 -11 -9z"/>
</g>
</svg>
